<svg width="1263" height="452" viewBox="0 0 1263 452" fill="none" xmlns="http://www.w3.org/2000/svg">
<path d="M1230.3 452H789.172C771.144 452 756.476 440.821 756.476 427.081V245.524H515.802L538.407 261.862C541.225 263.9 541.344 267.293 538.67 269.442C535.998 271.59 531.545 271.68 528.725 269.643L493.322 244.052C491.233 242.543 490.562 240.215 491.629 238.177C492.695 236.138 495.283 234.802 498.162 234.802H763.51C767.395 234.802 770.544 237.202 770.544 240.163V427.081C770.544 434.909 778.9 441.278 789.172 441.278H1230.3C1240.57 441.278 1248.93 434.909 1248.93 427.081V24.9189C1248.93 17.091 1240.57 10.7224 1230.3 10.7224H789.172C778.901 10.7224 770.545 17.091 770.545 24.9189V159.589C770.545 162.55 767.396 164.95 763.511 164.95C759.626 164.95 756.476 162.55 756.476 159.589V24.9189C756.476 11.1788 771.144 0 789.172 0H1230.3C1248.33 0 1263 11.1784 1263 24.9189V427.081C1263 440.821 1248.33 452 1230.3 452Z" fill="#FF6F61"/>
<path d="M474.293 452H32.7273C14.6817 452 0 440.821 0 427.081V24.9189C0 11.1788 14.6817 0 32.7273 0H474.293C492.339 0 507.021 11.1784 507.021 24.9189V199.17H748.301L725.675 182.83C722.854 180.793 722.735 177.4 725.412 175.251C728.086 173.103 732.543 173.014 735.366 175.05L770.804 200.641C772.895 202.151 773.566 204.478 772.499 206.516C771.431 208.555 768.84 209.892 765.958 209.892H499.98C496.092 209.892 492.939 207.492 492.939 204.53V24.9189C492.939 17.091 484.575 10.7224 474.294 10.7224H32.7273C22.4466 10.7224 14.0823 17.091 14.0823 24.9189V427.081C14.0823 434.909 22.4466 441.278 32.7273 441.278H474.293C484.574 441.278 492.938 434.909 492.938 427.081V291.539C492.938 288.578 496.091 286.178 499.98 286.178C503.868 286.178 507.021 288.578 507.021 291.539V427.081C507.021 440.821 492.339 452 474.293 452Z" fill="#FFA1A1"/>
</svg>
